<?xml version="1.0" encoding="utf-8"?>
<?xml-stylesheet type="text/xsl" href="rss1.xsl"?>
<rss version="2.0" xmlns:atom="http://www.w3.org/2005/Atom" xmlns:content="http://purl.org/rss/1.0/modules/content/" xmlns:dc="http://purl.org/dc/elements/1.1/" xmlns:media="http://search.yahoo.com/mrss/">
<channel>
 <title>Getty</title>
 <link>http://www.gettyimg.com/</link>
 <atom:link href="http://www.gettyimg.com/" rel="self" type="application/rss+xml" />

 
                <item>
                <title><![CDATA[【Cinema Center】SERIES - Muppet Babies (2018) - Season 3 - 1080p Disney+ WEB-DL DDP5.1 H.264-LAZY]]></title>
                <link><![CDATA[https://sharemania.us/threads/muppet-babies-2018-season-3-1080p-disney-web-dl-ddp5-1-h-264-lazy.237387/]]></link>
                <description><![CDATA[<article>
<blockquote class="messageText SelectQuoteContainer ugc baseHtml">
Muppet Babies (2018):<img src="https://artworks.thetvdb.com/banners/v4/series/343395/banners/641f13b84eb67.jpg" class="bbCodeImage LbImage" alt="[​IMG]" data-url="https://artworks.thetvdb.com/banners/v4/series/343395/banners/641f13b84eb67.jpg" style=""> <br>
<br>
<div class="bbCodeBlock bbCodeQuote">
<aside>
<blockquote class="quoteContainer"><div class="quote"><i><b>Synopsis:</b></i><br>
Baby versions of Jim Henson's famous Muppet characters go on wacky adventures through their imaginations</div><div class="quoteExpand">Click to expand...</div></blockquote>
</aside>
</div>
<div class="ToggleTriggerAnchor bbCodeSpoilerContainer">
<button type="button" class="button bbCodeSpoilerButton ToggleTrigger Tooltip JsOnly" data-target="> .SpoilerTarget"><span>Spoiler: <span class="SpoilerTitle">MediaInfo</span></span></button>
<div class="SpoilerTarget bbCodeSpoilerText">General<br>
Unique ID : 274451901063887973974310931739502002889 (0xCE798371CE61CD57CBC5D4E23E0142C9)<br>
Complete name : Muppet.Babies.2018.S03E01E02.Oh.Brother.-.Fozzies.Boo.Boo.Patrol.1080p.DSNP.WEB-DL.DDP5.1.H.264-LAZY.mkv<br>
Format : Matroska<br>
Format version : Version 4<br>
File size : 1.28 GiB<br>
Duration : 23 min 34 s<br>
Overall bit rate mode : Variable<br>
Overall bit rate : 7 751 kb/s<br>
Frame rate : 23.976 FPS<br>
Encoded date : 2024-02-07 18:51:49 UTC<br>
Writing application : mkvmerge v82.0 ('I'm The President') 64-bit<br>
Writing library : libebml v1.4.5 + libmatroska v1.7.1<br>
<br>
Video<br>
ID : 1<br>
Format : AVC<br>
Format/Info : Advanced Video Codec<br>
Format profile : High@L4<br>
Format settings : CABAC / 4 Ref Frames<br>
Format settings, CABAC : Yes<br>
Format settings, Reference frames : 4 frames<br>
Codec ID : V_MPEG4/ISO/AVC<br>
Duration : 23 min 34 s<br>
Bit rate mode : Variable<br>
Bit rate : 7 492 kb/s<br>
Maximum bit rate : 12.7 Mb/s<br>
Width : 1 920 pixels<br>
Height : 1 080 pixels<br>
Display aspect ratio : 16:9<br>
Frame rate mode : Constant<br>
Frame rate : 23.976 (24000/1001) FPS<br>
Color space : YUV<br>
Chroma subsampling : 4:2:0<br>
Bit depth : 8 bits<br>
Scan type : Progressive<br>
Bits/(Pixel*Frame) : 0.151<br>
Stream size : 1.23 GiB (97%)<br>
Default : Yes<br>
Forced : No<br>
Color range : Limited<br>
Color primaries : BT.709<br>
Transfer characteristics : BT.709<br>
Matrix coefficients : BT.709<br>
<br>
Audio<br>
ID : 2<br>
Format : E-AC-3<br>
Format/Info : Enhanced AC-3<br>
Commercial name : Dolby Digital Plus<br>
Codec ID : A_EAC3<br>
Duration : 23 min 34 s<br>
Bit rate mode : Constant<br>
Bit rate : 256 kb/s<br>
Channel(s) : 6 channels<br>
Channel layout : L R C LFE Ls Rs<br>
Sampling rate : 48.0 kHz<br>
Frame rate : 31.250 FPS (1536 SPF)<br>
Compression mode : Lossy<br>
Stream size : 43.2 MiB (3%)<br>
Language : English<br>
Service kind : Complete Main<br>
Default : Yes<br>
Forced : No<br>
<br>
Text #1<br>
ID : 3<br>
Format : UTF-8<br>
Codec ID : S_TEXT/UTF8<br>
Codec ID/Info : UTF-8 Plain Text<br>
Duration : 23 min 25 s<br>
Bit rate : 87 b/s<br>
Frame rate : 0.381 FPS<br>
Count of elements : 535<br>
Stream size : 15.1 KiB (0%)<br>
Title : SDH<br>
Language : English<br>
Default : No<br>
Forced : No<br>
<br>
Text #2<br>
ID : 4<br>
Format : UTF-8<br>
Codec ID : S_TEXT/UTF8<br>
Codec ID/Info : UTF-8 Plain Text<br>
Duration : 22 min 30 s<br>
Bit rate : 73 b/s<br>
Frame rate : 0.340 FPS<br>
Count of elements : 459<br>
Stream size : 12.1 KiB (0%)<br>
Language : Czech<br>
Default : No<br>
Forced : No<br>
<br>
Text #3<br>
ID : 5<br>
Format : UTF-8<br>
Codec ID : S_TEXT/UTF8<br>
Codec ID/Info : UTF-8 Plain Text<br>
Duration : 22 min 53 s<br>
Bit rate : 66 b/s<br>
Frame rate : 0.341 FPS<br>
Count of elements : 469<br>
Stream size : 11.1 KiB (0%)<br>
Language : Finnish<br>
Default : No<br>
Forced : No<br>
<br>
Text #4<br>
ID : 6<br>
Format : UTF-8<br>
Codec ID : S_TEXT/UTF8<br>
Codec ID/Info : UTF-8 Plain Text<br>
Duration : 22 min 30 s<br>
Bit rate : 61 b/s<br>
Frame rate : 0.353 FPS<br>
Count of elements : 477<br>
Stream size : 10.1 KiB (0%)<br>
Language : Hungarian<br>
Default : No<br>
Forced : No<br>
<br>
Text #5<br>
ID : 7<br>
Format : UTF-8<br>
Codec ID : S_TEXT/UTF8<br>
Codec ID/Info : UTF-8 Plain Text<br>
Duration : 21 min 52 s<br>
Bit rate : 70 b/s<br>
Frame rate : 0.285 FPS<br>
Count of elements : 374<br>
Stream size : 11.2 KiB (0%)<br>
Language : Polish<br>
Default : No<br>
Forced : No<br>
<br>
Text #6<br>
ID : 8<br>
Format : UTF-8<br>
Codec ID : S_TEXT/UTF8<br>
Codec ID/Info : UTF-8 Plain Text<br>
Duration : 23 min 30 s<br>
Bit rate : 65 b/s<br>
Frame rate : 0.228 FPS<br>
Count of elements : 321<br>
Stream size : 11.3 KiB (0%)<br>
Language : Romanian<br>
Default : No<br>
Forced : No<br>
<br>
Text #7<br>
ID : 9<br>
Format : UTF-8<br>
Codec ID : S_TEXT/UTF8<br>
Codec ID/Info : UTF-8 Plain Text<br>
Duration : 22 min 23 s<br>
Bit rate : 65 b/s<br>
Frame rate : 0.281 FPS<br>
Count of elements : 378<br>
Stream size : 10.8 KiB (0%)<br>
Language : Turkish<br>
Default : No<br>
Forced : No<br>
<br>
Text #8<br>
ID : 10<br>
Format : UTF-8<br>
Codec ID : S_TEXT/UTF8<br>
Codec ID/Info : UTF-8 Plain Text<br>
Duration : 23 min 26 s<br>
Bit rate : 69 b/s<br>
Frame rate : 0.354 FPS<br>
Count of elements : 498<br>
Stream size : 11.9 KiB (0%)<br>
Title : Traditional, Hong Kong<br>
Language : Chinese<br>
Default : No<br>
Forced : No<br>
<br>
Text #9<br>
ID : 11<br>
Format : UTF-8<br>
Codec ID : S_TEXT/UTF8<br>
Codec ID/Info : UTF-8 Plain Text<br>
Duration : 23 min 6 s<br>
Bit rate : 70 b/s<br>
Frame rate : 0.388 FPS<br>
Count of elements : 538<br>
Stream size : 11.9 KiB (0%)<br>
Title : Traditional<br>
Language : Chinese<br>
Default : No<br>
Forced : No<br>
<br>
Menu<br>
00:00:01.001 : en:Intro<br>
00:01:01.061 : en:Scene 1<br>
00:12:02.764 : en:Scene 2<br>
00:23:05.385 : en:Credits</div>
</div><br>
Screenshots:<br>
<img src="https://i.imgur.com/as0Dzmu.jpeg" class="bbCodeImage LbImage" alt="[​IMG]" data-url="https://i.imgur.com/as0Dzmu.jpeg" style=""> <br>
<br>
<div class="bbCodeBlock bbCodeVfcHH HiddenContent">
<div class="attribution type">Hidden Content:</div>
<blockquote>You must either reply or click 'Like' to see the hidden information contained here.</blockquote>
</div>
<div class="messageTextEndMarker">&nbsp;</div>
</blockquote>
</article>]]></description>
                <author><![CDATA[LazyRips]]></author>
                </item>

                
                <item>
                <title><![CDATA[【Requests】[REQ AUD] - Revenge of the Giant Robot - Chico Science]]></title>
                <link><![CDATA[https://sharemania.us/threads/revenge-of-the-giant-robot-chico-science.237388/]]></link>
                <description><![CDATA[<article>
<blockquote class="messageText SelectQuoteContainer ugc baseHtml">
Can I request an album? it's called Revenge of the Giant Robot by Chico Science. <br>
<br>
<br>
<br>
Here is the link of the album: <br>
<a href="https://www.qobuz.com/us-en/album/revenge-of-the-giant-robot-chico-science/thhf1hplk2avc" target="_blank" class="externalLink" rel="nofollow">https://www.qobuz.com/us-en/album/revenge-of-the-giant-robot-chico-science/thhf1hplk2avc</a>
<div class="messageTextEndMarker">&nbsp;</div>
</blockquote>
</article>]]></description>
                <author><![CDATA[engk]]></author>
                </item>

                </channel></rss>